<svg width="40" height="42" viewBox="0 0 40 42" fill="none" xmlns="http://www.w3.org/2000/svg">
<path d="M36.675 24.2353L39.9579 7.50572C40.1949 6.29781 39.4022 5.14757 38.3326 5.14757H11.0561L10.4196 1.54347C10.261 0.645135 9.57847 0 8.78674 0H1.66667C0.746181 0 0 0.864229 0 1.93034V3.21723C0 4.28334 0.746181 5.14757 1.66667 5.14757H6.51965L11.398 32.7703C10.2309 33.5477 9.44445 35.0052 9.44445 36.6764C9.44445 39.164 11.1856 41.1806 13.3333 41.1806C15.4811 41.1806 17.2222 39.164 17.2222 36.6764C17.2222 35.4158 16.7745 34.2768 16.0539 33.4592H30.6127C29.8922 34.2768 29.4445 35.4158 29.4445 36.6764C29.4445 39.164 31.1856 41.1806 33.3333 41.1806C35.4811 41.1806 37.2222 39.164 37.2222 36.6764C37.2222 34.8931 36.3272 33.3521 35.0292 32.6223L35.4124 30.6698C35.6494 29.4619 34.8567 28.3116 33.7872 28.3116H15.147L14.6925 25.7378H35.0498C35.828 25.7378 36.5026 25.1142 36.675 24.2353Z" fill="white"/>
</svg>
